<?xml version="1.0" encoding="UTF-8"?>
<svg id="Layer_1" data-name="Layer 1" xmlns="http://www.w3.org/2000/svg" viewBox="0 0 32.667 46.667">
  <defs>
    <style>
      .cls-1 {
        fill: #f54f35;
        fill-rule: evenodd;
      }
    </style>
  </defs>
  <path class="cls-1" d="M16.418,0C7.428-.081.085,7.001,0,15.823c-.082,8.825,7.128,16.035,16.119,16.116h5.647v-5.987h-5.348c-5.616.065-10.22-4.354-10.285-9.87-.068-5.511,4.436-10.029,10.052-10.094h.233c5.616,0,10.169,4.468,10.185,9.982v14.712c0,5.465-4.536,9.917-10.087,9.984-2.649-.019-5.186-1.066-7.077-2.921l-4.319,4.242c3.014,2.96,7.057,4.638,11.282,4.681h.215c8.874-.131,16.002-7.194,16.051-15.904v-15.167C32.45,6.914,25.24,0,16.418,0Z"/>
</svg>