<?xml version="1.0" encoding="UTF-8"?>
<svg id="Layer_1" xmlns="http://www.w3.org/2000/svg" version="1.1" viewBox="0 0 12 12">
  <!-- Generator: Adobe Illustrator 30.0.0, SVG Export Plug-In . SVG Version: 2.1.1 Build 123)  -->
  <defs>
    <style>
      .st0 {
        fill: #10a37f;
        fill-rule: evenodd;
      }
    </style>
  </defs>
  <path class="st0" d="M4.6,4.33v-1.13c0-.1.04-.17.12-.21l2.27-1.31c.31-.18.68-.26,1.06-.26,1.43,0,2.33,1.11,2.33,2.28,0,.08,0,.18-.01.27l-2.35-1.38c-.13-.08-.3-.08-.43,0,0,0-2.99,1.74-2.99,1.74ZM9.91,8.73v-2.7c0-.17-.07-.28-.21-.37l-2.98-1.74.97-.56c.07-.05.17-.05.24,0l2.27,1.31c.65.38,1.09,1.19,1.09,1.97,0,.9-.53,1.74-1.38,2.08h0ZM3.9,6.35l-.97-.57c-.08-.05-.12-.12-.12-.21v-2.62c0-1.27.98-2.24,2.3-2.24.5,0,.96.17,1.36.46l-2.34,1.36c-.14.08-.21.2-.21.37v3.45h0ZM6,7.56l-1.4-.78v-1.66l1.4-.79,1.4.78v1.66l-1.4.79ZM6.9,11.18c-.5,0-.96-.17-1.36-.46l2.34-1.36c.14-.08.21-.2.21-.37v-3.45l.99.57c.08.05.12.12.12.21v2.62c0,1.27-.99,2.24-2.31,2.24h0ZM4.08,8.53l-2.27-1.31c-.65-.38-1.09-1.19-1.09-1.97,0-.91.55-1.74,1.39-2.08v2.71c0,.17.07.29.21.37l2.97,1.72-.97.56c-.07.05-.17.05-.24,0ZM3.95,10.48c-1.34,0-2.33-1.01-2.33-2.26,0-.1.01-.19.02-.28l2.34,1.35c.14.08.29.08.43,0l2.98-1.72v1.13c0,.1-.03.17-.12.21l-2.27,1.31c-.31.18-.68.26-1.06.26ZM6.9,11.89c1.41,0,2.63-.99,2.91-2.38,1.33-.34,2.19-1.59,2.19-2.87,0-.83-.36-1.64-1-2.22.06-.25.1-.5.1-.75,0-1.7-1.38-2.97-2.97-2.97-.32,0-.63.05-.94.15C6.63.31,5.88,0,5.1,0c-1.41,0-2.63.99-2.91,2.38-1.33.35-2.19,1.59-2.19,2.87,0,.83.36,1.64,1,2.22-.06.25-.09.5-.09.75,0,1.7,1.38,2.97,2.97,2.97.32,0,.63-.05.94-.15.56.55,1.3.85,2.08.86h0Z"/>
</svg>